<?xml version="1.0" encoding="utf-8"?>
<!-- Generator: Adobe Illustrator 16.0.0, SVG Export Plug-In . SVG Version: 6.00 Build 0)  -->
<!DOCTYPE svg PUBLIC "-//W3C//DTD SVG 1.1//EN" "http://www.w3.org/Graphics/SVG/1.1/DTD/svg11.dtd">
<svg version="1.1" id="Layer_2" xmlns="http://www.w3.org/2000/svg" xmlns:xlink="http://www.w3.org/1999/xlink" x="0px" y="0px"
	 width="163.25px" height="153.196px" viewBox="0 0 163.25 153.196" enable-background="new 0 0 163.25 153.196"
	 xml:space="preserve">
<g>
	<g>
		<g>
			<path fill-rule="evenodd" clip-rule="evenodd" fill="#FFFFFF" d="M9.225,10.751c2.909-0.268,5.229,1.508,6.269,3.824
				c0.232,0.518,0.65,1.521,0.502,2.007c-0.15,0.489-1.367,0.73-1.944,0.501c-0.716-0.284-0.968-1.715-1.316-2.257
				c-0.741-1.152-2.552-2.18-4.514-1.441c-0.586,0.22-1.248,0.746-1.63,1.316C5.788,15.9,5.442,18.244,6.09,19.78
				c0.627,1.488,2.373,2.521,3.636,3.323c2.027,1.287,4.305,2.326,5.643,4.263c2.206,3.195,1.276,8.674-1.129,10.784
				c-2.12,1.858-6.367,2.275-8.902,0.438c-1.342-0.973-2.268-2.702-2.696-4.827c-0.089-0.444-0.216-0.917,0-1.317
				c0.338-0.625,1.655-0.636,2.069-0.376c0.546,0.343,0.518,1.51,0.814,2.383c0.366,1.078,1.094,2.076,2.069,2.507
				c1.278,0.566,2.609,0.489,3.636,0.126c0.787-0.277,1.594-0.884,2.069-1.692c0.906-1.541,1.069-4.279,0.063-6.207
				c-1.078-2.066-3.307-3.047-5.329-4.263c-1.214-0.731-2.531-1.495-3.385-2.508c-2.393-2.838-1.656-7.805,0.689-10.032
				C6.374,11.398,7.662,10.895,9.225,10.751z"/>
			<path fill-rule="evenodd" clip-rule="evenodd" fill="#FFFFFF" d="M31.481,11.127c0.774-0.222,2.609-0.063,3.636-0.063
				c2.405,0,4.516,0,7.021,0c1.041,0,2.844-0.166,3.261,0.251c0.445,0.445,0.304,1.514,0,1.818
				c-0.884,0.883-4.605-0.348-5.517,0.564c-0.45,0.45-0.313,1.978-0.313,2.946c0,6.536,0,12.86,0,19.561
				c0,0.987,0.139,2.557-0.251,2.946c-0.373,0.374-1.763,0.368-2.131,0c-0.408-0.407-0.251-1.999-0.251-3.009
				c0-6.895,0-12.612,0-19.561c0-1.286,0.132-2.439-0.313-2.884c-0.613-0.613-3.164-0.29-4.389-0.313
				c-0.54-0.012-1.002,0.008-1.254-0.314c-0.568-0.727,0.001-1.817,0.376-1.943C31.393,11.116,31.443,11.139,31.481,11.127z"/>
			<path fill-rule="evenodd" clip-rule="evenodd" fill="#FFFFFF" d="M61.826,11.127c0.725-0.207,2.506-0.063,3.572-0.063
				c1.21,0,2.432-0.074,3.449,0c1.916,0.14,3.385,1.117,4.199,2.006c2.66,2.9,2.498,9.126-0.438,11.912
				c-0.762,0.724-2.008,1.003-2.195,1.818c-0.105,0.459,0.18,1.009,0.439,1.567c1.369,2.943,2.705,5.546,4.201,8.589
				c0.287,0.585,0.611,1.23,0.563,1.568c-0.06,0.429-1.164,1.174-1.817,1.065c-0.471-0.078-0.791-0.88-1.066-1.441
				c-1.414-2.88-2.576-5.419-4.013-8.276c-0.426-0.847-0.964-2.699-1.817-3.072c-0.768-0.333-2.486-0.146-2.822,0.188
				c-0.657,0.657-0.313,4.748-0.313,6.081c0,1.616,0.019,3.091,0,4.765c-0.005,0.516,0.042,1.024-0.251,1.316
				c-0.357,0.359-1.874,0.347-2.193-0.063c-0.347-0.442-0.188-2.271-0.188-3.448c0-7.024,0-14.03,0-21.441
				c0-0.962-0.263-2.797,0.563-3.072C61.738,11.116,61.787,11.139,61.826,11.127z M63.957,13.824
				c-0.286,0.429-0.188,1.861-0.188,2.445c0,1.711,0,3.7,0,5.392c0,0.888-0.026,2.042,0.313,2.382
				c0.547,0.548,1.973,0.314,2.822,0.314c1.673,0,2.801-0.195,3.635-0.878c1.699-1.389,2.325-5.608,1.129-7.962
				c-0.972-1.914-3.248-2.392-6.771-2.132c-0.048,0.003-0.058,0.062-0.063,0.063C64.49,13.506,64.153,13.528,63.957,13.824z"/>
			<path fill-rule="evenodd" clip-rule="evenodd" fill="#FFFFFF" d="M90.289,11.127c0.588-0.179,2.162-0.063,3.322-0.063
				c2.898,0,5.055-0.032,8.15,0c0.604,0.007,1.072,0.007,1.316,0.251c0.379,0.378,0.378,1.44,0,1.818
				c-0.354,0.354-1.654,0.251-2.57,0.251c-1.782,0-3.654,0-5.518,0c-0.814,0-2.012-0.12-2.445,0.313
				c-0.59,0.591-0.313,3.393-0.313,4.514c0,1.345-0.299,3.902,0.313,4.514c0.531,0.531,3.195,0.313,4.264,0.313
				c0.916,0,3.842-0.233,4.326,0.251c0.346,0.345,0.414,1.418,0.063,1.818c-0.434,0.495-3.348,0.251-4.326,0.251
				c-1.209,0-3.591-0.297-4.262,0.251c-0.705,0.574-0.377,4.244-0.377,5.517c0,0.938,0,1.787,0,2.947c0,0.87-0.119,2.179,0.25,2.633
				c0.449,0.55,3.842,0.376,5.268,0.376c0.898,0,1.916,0,2.82,0c1.029,0,2.12-0.138,2.508,0.251c0.33,0.331,0.428,1.392,0,1.817
				c-0.424,0.425-2.342,0.252-3.197,0.252c-2.5,0-4.096,0-6.771,0c-1.161,0-2.735,0.217-3.198-0.188
				c-0.371-0.325-0.25-2.219-0.25-3.386c0-7.954-0.16-15.326,0-23.386C89.68,11.521,89.711,11.304,90.289,11.127z"/>
			<path fill-rule="evenodd" clip-rule="evenodd" fill="#FFFFFF" d="M119.004,11.127c0.587-0.179,2.161-0.063,3.322-0.063
				c2.896,0,5.055-0.032,8.15,0c0.604,0.007,1.071,0.007,1.316,0.251c0.379,0.378,0.377,1.44,0,1.818
				c-0.354,0.354-1.654,0.251-2.57,0.251c-1.783,0-3.654,0-5.518,0c-0.814,0-2.012-0.12-2.445,0.313
				c-0.591,0.591-0.313,3.393-0.313,4.514c0,1.345-0.299,3.902,0.313,4.514c0.531,0.531,3.195,0.313,4.264,0.313
				c0.915,0,3.842-0.233,4.326,0.251c0.344,0.345,0.414,1.418,0.063,1.818c-0.435,0.495-3.348,0.251-4.326,0.251
				c-1.209,0-3.592-0.297-4.264,0.251c-0.705,0.574-0.375,4.244-0.375,5.517c0,0.938,0,1.787,0,2.947c0,0.87-0.121,2.179,0.25,2.633
				c0.448,0.55,3.84,0.376,5.266,0.376c0.899,0,1.917,0,2.822,0c1.029,0,2.119-0.138,2.508,0.251c0.33,0.331,0.427,1.392,0,1.817
				c-0.424,0.425-2.342,0.252-3.197,0.252c-2.5,0-4.097,0-6.771,0c-1.161,0-2.736,0.217-3.197-0.188
				c-0.371-0.325-0.25-2.219-0.25-3.386c0-7.954-0.16-15.326,0-23.386C118.395,11.519,118.426,11.304,119.004,11.127z"/>
			<path fill-rule="evenodd" clip-rule="evenodd" fill="#FFFFFF" d="M146.338,11.127c0.765-0.219,2.605-0.063,3.637-0.063
				c2.424,0,4.503,0,7.021,0c1.039,0,2.843-0.166,3.26,0.251c0.447,0.446,0.303,1.516,0,1.818c-0.876,0.876-4.605-0.347-5.517,0.564
				c-0.447,0.446-0.313,1.979-0.313,2.946c0,6.544,0,12.784,0,19.498c0,0.929,0.158,2.613-0.188,3.009
				c-0.383,0.436-1.895,0.343-2.195,0c-0.369-0.42-0.188-2.029-0.188-3.071c0-6.882,0-12.496,0-19.498
				c0-1.259,0.15-2.421-0.313-2.884c-0.492-0.492-1.823-0.313-2.884-0.313c-0.973,0-2.364,0.271-2.822-0.314
				c-0.57-0.729,0.01-1.82,0.377-1.943C146.25,11.116,146.3,11.139,146.338,11.127z"/>
			<path fill-rule="evenodd" clip-rule="evenodd" fill="#FFFFFF" d="M81.261,62.162c2.358-0.218,4.313,0.749,5.643,2.006
				c0.464,0.439,1.468,1.458,1.442,2.132c-0.025,0.667-0.232,0.554-0.627,0.814c-0.162,0.107-0.588,0.47-1.004,0.439
				c-0.52-0.038-0.908-0.797-1.316-1.254c-1.096-1.229-3.128-2.375-5.329-1.38c-0.96,0.436-1.688,1.25-2.194,2.132
				c-1.311,2.285-1.692,5.755-1.692,9.529c0,3.701,0.392,7.295,1.63,9.53c0.498,0.898,1.244,1.818,2.194,2.257
				c1.655,0.764,3.353,0.22,4.325-0.376c0.393-0.239,1.031-0.756,1.443-1.191c0.346-0.365,0.807-1.206,1.316-1.254
				c0.535-0.049,1.646,0.715,1.691,1.254c0.064,0.74-1.158,1.744-1.566,2.132c-0.636,0.604-1.389,1.147-2.132,1.505
				c-3.301,1.586-6.845,0.393-8.589-1.692c-2.283-2.729-3.072-7.257-3.072-12.038c0-4.94,0.826-9.467,3.01-12.1
				C77.547,63.264,79.18,62.353,81.261,62.162z"/>
			<path fill-rule="evenodd" clip-rule="evenodd" fill="#FFFFFF" d="M152.482,62.162c2.512-0.246,4.719,0.936,5.893,2.508
				c2.123,2.844,2.508,7.621,2.508,12.601c0,5.057-0.889,9.639-3.072,11.976c-2.318,2.483-6.922,2.563-9.341,0.188
				c-2.796-2.744-3.197-8.05-3.198-13.855c0-4.951,0.988-9.506,3.262-11.725C149.445,62.962,150.845,62.322,152.482,62.162z
				 M150.914,65.108c-1.341,0.817-2.062,2.599-2.444,4.515c-0.353,1.762-0.438,4.201-0.438,6.583c0,4.56,0.043,9.706,2.382,11.661
				c1.175,0.98,3.261,1.147,4.64,0.438c3.033-1.56,3.072-6.942,3.072-11.599c0-4.749,0.144-10.136-3.01-11.724
				c-0.67-0.337-1.766-0.428-2.383-0.376C152.072,64.661,151.404,64.809,150.914,65.108z"/>
			<path fill-rule="evenodd" clip-rule="evenodd" fill="#FFFFFF" d="M14.24,68.745c-0.581,0.069-0.76,0.673-0.94,1.128
				c-1.15,2.913-2.012,5.977-3.072,9.091c-0.145,0.427-0.417,1.259-0.752,1.254c-0.479-0.007-1.093-2.362-1.254-2.821
				c-0.728-2.068-1.368-4.04-2.069-6.081c-0.333-0.97-0.468-2.176-1.379-2.633c-0.511,0.541-0.464,1.488-0.501,2.382
				c-0.117,2.759-0.132,5.645-0.188,8.464c-0.05,2.519-0.188,5.525-0.188,8.464c0,0.977,0.06,2.202-0.313,2.57
				c-0.43,0.425-2.052,0.332-2.319-0.063c-0.297-0.438-0.074-2.426-0.063-3.448c0.071-6.784,0.521-13.919,0.627-20.814
				c0.024-1.574-0.238-3.537,0.815-3.762c0.622-0.133,1.927-0.111,2.382,0.126c0.585,0.304,0.916,1.811,1.191,2.633
				c0.732,2.178,1.208,3.514,1.944,5.705c0.247,0.734,0.59,2.511,1.254,2.57c0.756,0.067,1.018-1.479,1.379-2.57
				c0.683-2.062,1.333-3.764,2.007-5.769c0.29-0.863,0.573-2.364,1.253-2.633c0.674-0.266,2.457-0.183,2.821,0.188
				c0.384,0.39,0.313,2.09,0.313,3.322c0,3.488,0.295,7.212,0.313,10.532c0.021,3.969,0.254,6.638,0.313,10.533
				c0.014,0.938,0.276,2.885-0.063,3.386c-0.263,0.389-1.947,0.497-2.382,0.063c-0.327-0.327-0.291-1.629-0.314-2.57
				c-0.114-4.76-0.313-9.412-0.313-14.044c0-0.939-0.063-1.904-0.063-2.821C14.679,70.237,14.696,69.324,14.24,68.745z"/>
			<path fill-rule="evenodd" clip-rule="evenodd" fill="#FFFFFF" d="M40.885,62.538c0.526-0.151,1.696-0.063,2.507-0.063
				c1.453,0,3.164,0,4.828,0c0.869,0,1.816-0.063,2.131,0.251c0.387,0.385,0.318,1.499,0,1.817c-0.609,0.61-2.643-0.052-3.322,0.501
				c-0.441,0.361-0.377,1.592-0.377,2.634c0,6.051,0,11.661,0,17.868c0,1.024-0.061,2.26,0.314,2.634
				c0.615,0.616,2.732,0.04,3.322,0.501c0.348,0.271,0.535,1.41,0.063,1.881c-0.334,0.335-1.654,0.251-2.382,0.251
				c-1.585,0-3.439,0-5.204,0c-0.764,0-2.043,0.025-2.319-0.251c-0.381-0.381-0.355-1.554,0.063-1.881
				c0.619-0.484,2.634,0.062,3.198-0.501c0.41-0.411,0.313-1.693,0.313-2.696c0-5.945,0-11.66,0-17.743
				c0-1.006,0.061-2.258-0.313-2.633c-0.545-0.545-2.642,0.055-3.261-0.564c-0.589-0.589-0.191-1.838,0.313-2.006
				C40.798,62.525,40.847,62.548,40.885,62.538z"/>
			<path fill-rule="evenodd" clip-rule="evenodd" fill="#FFFFFF" d="M112.044,62.538c0.767-0.221,2.589-0.063,3.573-0.063
				c1.252,0,2.486-0.064,3.449,0c3.561,0.238,5.891,3.169,6.144,6.646c0.228,3.133-0.821,5.99-2.634,7.523
				c-0.677,0.572-1.826,0.821-1.943,1.63c-0.078,0.542,0.304,1.014,0.564,1.567c1.193,2.529,2.152,4.546,3.386,7.146
				c0.281,0.595,1.356,2.222,1.254,2.947c-0.061,0.432-1.039,1.18-1.755,1.066c-0.49-0.078-0.785-0.873-1.066-1.442
				c-1.451-2.933-2.572-5.404-4.012-8.339c-0.395-0.803-1.064-2.673-1.882-3.009c-0.739-0.305-2.472-0.161-2.821,0.188
				c-0.646,0.646-0.313,4.686-0.313,6.019c0,1.631,0,3.058,0,4.765c0,0.521,0.068,1.086-0.188,1.379
				c-0.342,0.392-1.952,0.326-2.256-0.063c-0.347-0.442-0.189-2.271-0.189-3.448c0-7.021,0-14.033,0-21.441
				c0-0.987-0.26-2.797,0.565-3.072C111.957,62.525,112.006,62.548,112.044,62.538z M114.928,64.858
				c-1.132,0.101-0.94,1.607-0.94,2.82c0,0.826,0,1.749,0,2.696c0,1.348-0.302,4.463,0.313,5.078
				c0.574,0.575,2.979,0.398,4.076,0.313c1.201-0.094,2.101-0.561,2.633-1.065c1.521-1.446,2.141-5.891,0.689-8.15
				c-0.971-1.511-3.841-2.173-6.646-1.692C115.013,64.865,114.969,64.854,114.928,64.858z"/>
			<path fill-rule="evenodd" clip-rule="evenodd" fill="#FFFFFF" d="M56.747,113.571c2.694-0.272,4.949,1.108,6.081,2.759
				c2.093,3.052,2.32,8.018,2.32,12.915c0,5.061-1.039,9.673-3.449,11.787c-2.291,2.01-5.933,1.937-8.15,0.376
				c-3.418-2.406-4.012-7.595-4.012-13.729c0-4.572,0.555-8.894,2.508-11.536C53.039,114.798,54.567,113.792,56.747,113.571z
				 M52.672,121.534c-0.305,1.879-0.376,4.348-0.376,6.771c0,4.624,0.22,9.722,2.946,11.284c1.568,0.898,3.648,0.646,4.828-0.376
				c1.051-0.909,1.621-2.451,1.943-4.389c0.545-3.288,0.589-8.626,0.25-12.226c-0.338-3.601-1.46-6.92-5.266-6.582
				C54.055,116.277,53.094,118.928,52.672,121.534z"/>
			<path fill-rule="evenodd" clip-rule="evenodd" fill="#FFFFFF" d="M105.211,113.571c2.494-0.229,4.68,0.906,6.018,2.446
				c0.366,0.421,1.084,1.16,1.066,1.692c-0.018,0.502-0.381,0.648-0.627,0.814c-0.207,0.14-0.697,0.453-1.004,0.439
				c-0.59-0.027-0.797-0.726-1.254-1.254c-1.111-1.29-3.426-2.345-5.517-1.317c-3.175,1.561-3.761,6.601-3.761,11.599
				c-0.001,4.032,0.41,7.784,1.88,10.031c0.46,0.704,1.212,1.41,1.944,1.756c1.877,0.885,3.647,0.141,4.764-0.689
				c0.252-0.187,0.814-0.637,1.191-1.066c0.345-0.393,0.563-1.018,1.129-1.065c0.529-0.045,0.749,0.307,1.003,0.501
				c0.276,0.212,0.665,0.268,0.69,0.815c0.023,0.563-1.04,1.635-1.506,2.069c-0.603,0.563-1.33,1.069-2.068,1.441
				c-2.801,1.41-6.142,0.774-8.025-0.877c-2.704-2.372-3.762-7.453-3.762-12.539c0-5.286,0.826-10.188,3.449-12.853
				C101.9,114.418,103.471,113.731,105.211,113.571z"/>
			<path fill-rule="evenodd" clip-rule="evenodd" fill="#FFFFFF" d="M152.795,113.571c2.994-0.275,5.263,1.566,6.333,3.95
				c0.239,0.532,0.624,1.524,0.438,1.943c-0.242,0.546-1.578,0.704-2.068,0.438c-0.454-0.244-0.763-1.556-1.129-2.132
				c-0.752-1.182-2.482-2.414-4.64-1.566c-0.731,0.287-1.464,1.007-1.817,1.692c-0.57,1.104-0.887,3.054-0.314,4.577
				c0.412,1.096,1.414,1.821,2.383,2.508c3.465,2.452,8.275,3.906,8.275,9.718c0,5.194-3.732,9.133-9.342,7.586
				c-2.091-0.577-3.644-2.117-4.389-4.451c-0.25-0.788-0.592-1.829-0.375-2.445c0.232-0.666,1.721-0.847,2.193-0.564
				c0.408,0.244,0.4,1.078,0.564,1.756c0.33,1.354,0.982,2.633,2.258,3.197c1.113,0.493,2.777,0.571,4.074-0.063
				c2.054-1.003,3.246-4.694,1.756-7.647c-1.726-3.422-6.915-4.271-9.091-7.273c-0.804-1.108-1.2-2.71-1.19-4.138
				C146.736,117.012,149.044,113.917,152.795,113.571z"/>
			<path fill-rule="evenodd" clip-rule="evenodd" fill="#FFFFFF" d="M2.516,113.948c0.719-0.206,2.217-0.063,3.135-0.063
				c3.142,0,6.223-0.096,8.213,1.003c4.101,2.263,4.389,8.446,4.389,14.733c0,7.495-1.875,12.603-9.279,12.602
				c-1.062-0.001-2.422,0-3.574,0c-1.013-0.001-2.801,0.271-3.323-0.251c-0.333-0.334-0.327-1.417-0.063-1.756
				c0.469-0.6,1.338-0.146,1.818-0.627c0.574-0.574,0.313-4.385,0.313-5.579c0-4.811,0-9.854,0-14.733
				c0-1.244,0.061-2.315-0.25-2.696c-0.467-0.573-1.656-0.284-1.943-0.753C1.56,115.19,1.826,114.145,2.516,113.948z M7.72,116.267
				c-1.184,0.262-0.94,1.54-0.94,3.01c0,1.26,0,2.395,0,2.946c0,3.649,0,8.254,0,11.787c0,1.464-0.308,4.959,0.313,5.579
				c0.833,0.833,4.522,0.118,5.141-0.188c2.976-1.47,3.283-6.772,3.323-11.16c0.031-3.441-0.374-7.813-1.567-9.843
				c-1.042-1.771-3.164-2.642-6.145-2.132C7.805,116.274,7.759,116.259,7.72,116.267z"/>
		</g>
		<g>
			<path fill-rule="evenodd" clip-rule="evenodd" fill="#FFFFFF" d="M1.22,0.156c1.083-0.31,3.744-0.063,5.141-0.063
				c38.897,0,77.475,0,116.424,0c12.267,0,25.172,0,37.932,0c1.237,0,1.953,0.153,1.691,1.191c-0.187,0.745-0.811,0.689-1.88,0.689
				c-52.689,0-105.203,0.001-157.992,0c-0.821,0-1.734,0.041-1.943-0.564C0.417,0.898,0.536,0.353,1.22,0.156z"/>
			<path fill-rule="evenodd" clip-rule="evenodd" fill="#FFFFFF" d="M1.22,51.127c1.083-0.311,3.744-0.063,5.141-0.063
				c38.897,0,77.475-0.001,116.424,0c12.264,0,25.174,0,37.932,0c1.237,0,1.953,0.152,1.691,1.19c-0.188,0.744-0.811,0.69-1.88,0.69
				c-52.689,0-105.203,0-157.992,0c-0.821,0-1.734,0.041-1.943-0.564C0.417,51.869,0.536,51.324,1.22,51.127z"/>
			<path fill-rule="evenodd" clip-rule="evenodd" fill="#FFFFFF" d="M1.158,99.464c0.453-0.138,1.705-0.063,2.633-0.063
				c39.719-0.001,79.188,0.002,118.932,0c6.38,0,13.289,0,20.251,0c5.456,0,11.786,0,17.743,0c1.224,0,1.988,0.105,1.691,1.191
				c-0.194,0.714-0.865,0.627-1.943,0.627c-52.57,0-105.069,0-157.677,0c-0.875,0-1.885,0.041-2.132-0.376
				C0.402,100.414,0.441,99.683,1.158,99.464z"/>
			<path fill-rule="evenodd" clip-rule="evenodd" fill="#FFFFFF" d="M1.22,151.375c1.083-0.31,3.744-0.062,5.141-0.062
				c38.897-0.003,77.475,0.001,116.424,0c12.268-0.001,25.174,0,37.932,0c1.237,0,1.953,0.152,1.691,1.19
				c-0.188,0.745-0.811,0.69-1.88,0.69c-52.689,0.002-105.203-0.002-157.992,0c-0.821,0-1.734,0.041-1.943-0.565
				C0.417,152.118,0.536,151.573,1.22,151.375z"/>
		</g>
	</g>
</g>
</svg>
